<?xml version="1.0" encoding="utf-8"?>
<!-- Generator: Adobe Illustrator 22.0.2, SVG Export Plug-In . SVG Version: 6.00 Build 0)  -->
<svg version="1.1" id="图层_1" xmlns="http://www.w3.org/2000/svg" x="0px" y="0px"
  viewBox="0 0 200 200" style="enable-background:new 0 0 200 200;"
  xml:space="preserve">
<style type="text/css">
	.st0{fill-rule:evenodd;clip-rule:evenodd;fill:#000;}
</style>
  <g>
	<g>
		<path class="st0" d="M132,84h-16V68c0-8.8-7.2-16-16-16c-8.8,0-16,7.2-16,16v16H68c-8.8,0-16,7.2-16,16c0,8.8,7.2,16,16,16h16v16
			c0,8.8,7.2,16,16,16c8.8,0,16-7.2,16-16v-16h16c8.8,0,16-7.2,16-16C148,91.2,140.8,84,132,84z M100,4C47,4,4,47,4,100
			c0,53,43,96,96,96c53,0,96-43,96-96C196,47,153,4,100,4z M100,180c-44.2,0-80-35.8-80-80c0-44.2,35.8-80,80-80
			c44.2,0,80,35.8,80,80C180,144.2,144.2,180,100,180z"/>
	</g>
</g>
</svg>
