<?xml version="1.0" encoding="utf-8"?>
<!-- Generator: Adobe Illustrator 22.0.2, SVG Export Plug-In . SVG Version: 6.00 Build 0)  -->
<svg version="1.1" id="图层_1" xmlns="http://www.w3.org/2000/svg" xmlns:xlink="http://www.w3.org/1999/xlink" x="0px" y="0px"
	 viewBox="0 0 200 200" style="enable-background:new 0 0 200 200;" xml:space="preserve">
<style type="text/css">
	.st0{fill:#1D3A7E;}
	.st1{fill:#FF4D78;}
	.st2{fill:#E6A23C;}
	.st3{fill:#FFFFFF;}
</style>
<path class="st0" d="M111.6,177.1c7.7,13.5-6.1,27.3-19.5,19.5c-1.5-0.9-2.8-2.2-3.7-3.7c-7.7-13.5,6.1-27.3,19.5-19.5
	C109.5,174.3,110.7,175.6,111.6,177.1z"/>
<path class="st1" d="M135,123.8c0.1-5.3-3.3-10.6-10.3-14.6c-13.7-7.9-35.8-7.9-49.4,0c-6.8,3.9-10.2,9.1-10.2,14.3v0l-0.1,48
	c0,5.2,3.4,10.4,10.3,14.4c0.4,0.2,0.8,0.5,1.3,0.7c0.1,0.1,0.3,0.1,0.4,0.2c0.3,0.2,0.6,0.3,0.9,0.4c0.2,0.1,0.4,0.2,0.5,0.2
	c0.3,0.1,0.6,0.2,0.8,0.4c0.2,0.1,0.4,0.2,0.6,0.2c0.2,0.1,0.4,0.2,0.6,0.2c0.1,0,0.2,0.1,0.3,0.1c0.1,0,0.2,0.1,0.4,0.1
	c0.4,0.1,0.7,0.3,1.1,0.4c0.1,0,0.2,0.1,0.2,0.1c0.4,0.2,0.9,0.3,1.3,0.4c0.1,0,0.2,0.1,0.3,0.1c0.2,0.1,0.4,0.1,0.6,0.2
	c0.1,0,0.2,0.1,0.3,0.1c0.4,0.1,0.7,0.2,1.1,0.3c0.2,0,0.4,0.1,0.6,0.2c0.4,0.1,0.8,0.2,1.2,0.3c0.2,0,0.3,0.1,0.4,0.1
	c0,0,0.1,0,0.1,0c0.4,0.1,0.7,0.1,1.1,0.2c0.2,0,0.4,0.1,0.6,0.1c0.5,0.1,0.9,0.2,1.4,0.2c0.1,0,0.2,0,0.2,0h0
	c0.6,0.1,1.1,0.2,1.7,0.2c0.1,0,0.3,0,0.4,0c0.4,0,0.9,0.1,1.3,0.1h0c0.2,0,0.4,0,0.6,0c0.4,0,0.7,0,1.1,0.1c0.2,0,0.5,0,0.7,0
	c0.3,0,0.7,0,1,0h0.6c0.4,0,0.7,0,1.1,0h0.7c0.3,0,0.7,0,1,0h0.2c0.2,0,0.3,0,0.5,0c0.4,0,0.8,0,1.2-0.1c0.2,0,0.5,0,0.7,0
	c0.4,0,0.7-0.1,1.1-0.1c0.1,0,0.3,0,0.4,0c0.2,0,0.3,0,0.5-0.1c0.1,0,0.2,0,0.4,0c0.5-0.1,1-0.1,1.5-0.2c0.1,0,0.1,0,0.2,0l1.3-0.2
	c0.1,0,0.2,0,0.4-0.1c0.1,0,0.2,0,0.3,0c0.2,0,0.4-0.1,0.5-0.1c0.3-0.1,0.6-0.1,0.9-0.2c0.2,0,0.5-0.1,0.7-0.2
	c0.3-0.1,0.6-0.1,0.9-0.2c0.2-0.1,0.5-0.1,0.7-0.2c0.3-0.1,0.6-0.2,0.9-0.2l0.7-0.2l0.9-0.3c0.1,0,0.2-0.1,0.4-0.1
	c0.2-0.1,0.4-0.1,0.5-0.2c0.1,0,0.2-0.1,0.3-0.1c0.4-0.2,0.9-0.3,1.3-0.5c0.1,0,0.2-0.1,0.2-0.1c0.4-0.1,0.7-0.3,1.1-0.4l0.3-0.1
	c0.4-0.2,0.8-0.4,1.2-0.6c0,0,0.1,0,0.2-0.1l1.1-0.5c0.1,0,0.2-0.1,0.3-0.2c0.4-0.2,0.8-0.4,1.2-0.6c0.2-0.1,0.3-0.2,0.4-0.2
	c0,0,0.1,0,0.1-0.1l0.3-0.2c0.1-0.1,0.2-0.1,0.3-0.2c0.1-0.1,0.2-0.1,0.3-0.2c0.1-0.1,0.2-0.1,0.3-0.2c0.1-0.1,0.2-0.1,0.3-0.2
	c0.1-0.1,0.2-0.1,0.3-0.2c0.1-0.1,0.2-0.2,0.3-0.2c0.1-0.1,0.2-0.1,0.3-0.2c0.1-0.1,0.2-0.2,0.3-0.2c0.1-0.1,0.2-0.1,0.2-0.2
	c0.1-0.1,0.2-0.2,0.3-0.2c0.1-0.1,0.2-0.1,0.2-0.2c0.1-0.1,0.2-0.2,0.3-0.2c0.1-0.1,0.2-0.1,0.2-0.2c0.1-0.1,0.2-0.2,0.3-0.2
	c0.1,0,0.1-0.1,0.2-0.2l0,0c0.2-0.2,0.4-0.3,0.5-0.5l0.1-0.1c0.1-0.1,0.3-0.3,0.4-0.4l0.2-0.2c0.1-0.2,0.3-0.3,0.4-0.4
	c0,0,0-0.1,0.1-0.1c0.2-0.2,0.3-0.4,0.4-0.5l0,0c0,0,0.1-0.1,0.1-0.1c0.1-0.1,0.2-0.2,0.2-0.3l0.1-0.2c0.1-0.1,0.1-0.2,0.2-0.3
	l0.1-0.2c0.1-0.1,0.1-0.2,0.2-0.3c0-0.1,0.1-0.1,0.1-0.2l0.2-0.3c0,0,0-0.1,0.1-0.1c0,0,0,0,0,0c0-0.1,0.1-0.2,0.2-0.3
	c0-0.1,0.1-0.1,0.1-0.2c0.1-0.1,0.1-0.2,0.2-0.3c0,0,0-0.1,0.1-0.2c0.1-0.2,0.2-0.3,0.2-0.5c0,0,0,0,0-0.1c0.1-0.1,0.1-0.3,0.2-0.4
	v0c0-0.1,0-0.1,0.1-0.2c0-0.1,0.1-0.2,0.1-0.3l0.1-0.2c0-0.1,0.1-0.2,0.1-0.3c0-0.1,0-0.1,0.1-0.2l0.1-0.3c0-0.1,0-0.2,0-0.2
	l0.1-0.3v0c0-0.1,0-0.1,0-0.2c0-0.1,0-0.2,0-0.3c0-0.1,0-0.2,0-0.2c0-0.1,0-0.2,0-0.3c0-0.1,0-0.2,0-0.2c0-0.1,0-0.2,0-0.3
	c0-0.1,0-0.2,0-0.2c0-0.1,0-0.2,0-0.3v-0.1v-0.3L135,123.8C135,123.7,135,123.7,135,123.8L135,123.8z M133.7,129
	C133.7,129,133.7,129,133.7,129c0,0,0-0.1,0.1-0.2c0,0,0,0,0,0C133.8,128.9,133.7,129,133.7,129L133.7,129z M131.3,132.6
	L131.3,132.6c0,0,0-0.1,0.1-0.1L131.3,132.6C131.3,132.5,131.3,132.6,131.3,132.6L131.3,132.6z M125.7,137.3L125.7,137.3z
	 M126.3,136.9c0.1-0.1,0.2-0.1,0.3-0.2C126.5,136.8,126.4,136.8,126.3,136.9z M126.9,136.5c0.1-0.1,0.2-0.1,0.3-0.2
	C127.1,136.4,127,136.5,126.9,136.5z M127.4,136.1c0.1-0.1,0.2-0.1,0.2-0.2C127.6,136,127.5,136.1,127.4,136.1z M128,135.7
	c0.1-0.1,0.2-0.1,0.2-0.2C128.2,135.6,128.1,135.6,128,135.7z M128.5,135.3c0.1-0.1,0.2-0.1,0.2-0.2
	C128.7,135.2,128.6,135.2,128.5,135.3z M129,134.9c0.1-0.1,0.2-0.1,0.2-0.2h0C129.2,134.8,129.1,134.8,129,134.9z M129.5,134.4
	c0.1-0.1,0.2-0.1,0.2-0.2C129.6,134.3,129.6,134.4,129.5,134.4z M130.8,133.2c0,0,0.1-0.1,0.1-0.1L130.8,133.2
	C130.9,133.1,130.8,133.1,130.8,133.2z M132.3,131.4C132.3,131.4,132.3,131.3,132.3,131.4L132.3,131.4
	C132.3,131.3,132.3,131.4,132.3,131.4z M132.6,130.9c0,0,0-0.1,0.1-0.1C132.7,130.8,132.7,130.8,132.6,130.9
	C132.7,130.9,132.6,130.9,132.6,130.9z M132.9,130.5c0,0,0.1-0.1,0.1-0.2c0,0,0,0,0,0L132.9,130.5L132.9,130.5z M133.2,130
	c0-0.1,0.1-0.1,0.1-0.2c0,0,0,0,0,0C133.2,129.9,133.2,129.9,133.2,130L133.2,130z M133.4,129.5c0-0.1,0.1-0.1,0.1-0.2c0,0,0,0,0,0
	C133.5,129.4,133.5,129.5,133.4,129.5z M133.9,128.5c0-0.1,0.1-0.1,0.1-0.2c0,0,0,0,0,0C134,128.4,134,128.5,133.9,128.5
	L133.9,128.5z M134.1,128c0,0,0-0.1,0.1-0.2v0L134.1,128L134.1,128z M134.3,127.6c0-0.1,0-0.1,0.1-0.2v0
	C134.3,127.5,134.3,127.5,134.3,127.6z M134.5,127.1c0,0,0-0.1,0-0.1C134.5,127,134.5,127,134.5,127.1z M134.9,124.8L134.9,124.8
	C134.9,124.7,134.9,124.7,134.9,124.8C134.9,124.7,134.9,124.7,134.9,124.8z M135,124.3L135,124.3L135,124.3L135,124.3z
	 M125.4,137.5c-0.2,0.1-0.4,0.2-0.5,0.3C125,137.7,125.2,137.6,125.4,137.5z M69.8,133.6l0.2,0.2L69.8,133.6z M65.1,123.7
	L65.1,123.7z M65.1,124.2c0,0.1,0,0.2,0,0.2C65.1,124.4,65.1,124.3,65.1,124.2z M65.1,124.7c0,0.1,0,0.2,0,0.2
	C65.2,124.8,65.1,124.7,65.1,124.7z M65.2,125.2c0,0.1,0,0.2,0,0.2C65.2,125.3,65.2,125.2,65.2,125.2z M65.3,125.7
	c0,0.1,0,0.2,0,0.2C65.3,125.8,65.3,125.7,65.3,125.7z M65.4,126.1c0,0.1,0,0.2,0.1,0.2C65.4,126.3,65.4,126.2,65.4,126.1z
	 M65.5,126.6c0,0.1,0,0.2,0.1,0.2C65.5,126.8,65.5,126.7,65.5,126.6z M65.7,127.1c0,0.1,0,0.2,0.1,0.2
	C65.7,127.2,65.7,127.2,65.7,127.1z M65.8,127.6c0,0.1,0.1,0.2,0.1,0.2C65.9,127.7,65.8,127.7,65.8,127.6z M66,128.1
	c0,0.1,0.1,0.2,0.1,0.2C66,128.2,66,128.1,66,128.1z M66.2,128.5c0,0.1,0.1,0.2,0.1,0.2C66.3,128.7,66.2,128.6,66.2,128.5z
	 M66.4,129c0,0.1,0.1,0.2,0.1,0.2C66.5,129.2,66.4,129.1,66.4,129z M66.7,129.5c0,0.1,0.1,0.2,0.1,0.2
	C66.7,129.6,66.7,129.6,66.7,129.5z M66.9,129.9c0,0.1,0.1,0.2,0.1,0.2C67,130.1,67,130,66.9,129.9z M67.2,130.4
	c0,0.1,0.1,0.2,0.1,0.2C67.3,130.6,67.3,130.5,67.2,130.4z M67.5,130.9c0,0.1,0.1,0.2,0.2,0.2C67.6,131,67.6,130.9,67.5,130.9z
	 M67.8,131.3c0,0.1,0.1,0.2,0.2,0.2C67.9,131.5,67.9,131.4,67.8,131.3z M68.2,131.8c0.1,0.1,0.1,0.2,0.2,0.2
	C68.3,131.9,68.2,131.9,68.2,131.8z M68.5,132.2c0.1,0.1,0.1,0.2,0.2,0.2C68.7,132.4,68.6,132.3,68.5,132.2z M68.9,132.7
	c0.1,0.1,0.1,0.1,0.2,0.2C69,132.8,69,132.7,68.9,132.7z M69.3,133.1c0.1,0.1,0.1,0.1,0.2,0.2C69.5,133.3,69.4,133.2,69.3,133.1z
	 M74.8,137.4c-0.1,0-0.1-0.1-0.2-0.1C74.6,137.4,74.7,137.4,74.8,137.4z M74.1,137c-0.1,0-0.2-0.1-0.2-0.2C74,137,74.1,137,74.1,137
	z M73.5,136.7c-0.1-0.1-0.2-0.1-0.3-0.2C73.4,136.5,73.5,136.6,73.5,136.7z M73,136.3c-0.1-0.1-0.2-0.1-0.2-0.2
	C72.8,136.1,72.9,136.2,73,136.3z M72.4,135.9c-0.1-0.1-0.2-0.1-0.2-0.2C72.3,135.7,72.4,135.8,72.4,135.9z M71.9,135.5
	c-0.1-0.1-0.2-0.1-0.2-0.2C71.7,135.3,71.8,135.4,71.9,135.5z M71.4,135c-0.1-0.1-0.2-0.1-0.2-0.2C71.2,134.9,71.3,135,71.4,135z
	 M70.9,134.6c-0.1-0.1-0.2-0.1-0.2-0.2C70.7,134.5,70.8,134.6,70.9,134.6z M70.4,134.2c-0.1-0.1-0.2-0.1-0.2-0.2
	C70.3,134.1,70.3,134.1,70.4,134.2z"/>
<path class="st0" d="M166.1,34.2c45.6,77.8-34.7,158.1-112.5,112.5c-8.2-4.8-15-11.6-19.7-19.7C-11.8,49.2,68.6-31.2,146.4,14.5
	C154.5,19.3,161.3,26.1,166.1,34.2L166.1,34.2z"/>
<path class="st2" d="M117.2,123.9c9.6,5.5,9.6,14.5,0.1,20c-9.5,5.5-25,5.5-34.6,0c-9.6-5.5-9.6-14.5-0.1-20
	C92.2,118.4,107.7,118.4,117.2,123.9z"/>
<path class="st3" d="M100.5,142.7c-0.7,0-1.3-0.4-1.6-0.9L63.5,78.6c-0.4-0.7-0.3-1.6,0.3-2.2c0.6-0.6,1.4-0.7,2.2-0.4l18.4,8.7
	l15.8-14c0.7-0.6,1.7-0.6,2.4,0l15.8,13c0.8,0.7,0.9,1.8,0.2,2.6c-0.7,0.8-1.8,0.9-2.6,0.2l-14.6-12L85.9,88.4
	c-0.6,0.5-1.4,0.6-2,0.3l-14.2-6.8l30.8,55.1l32.8-62c0.5-0.9,1.6-1.3,2.5-0.8s1.3,1.6,0.8,2.5l-34.4,65
	C101.8,142.3,101.2,142.7,100.5,142.7C100.5,142.7,100.5,142.7,100.5,142.7L100.5,142.7z"/>
</svg>
