<?xml version="1.0" standalone="no"?><!DOCTYPE svg PUBLIC "-//W3C//DTD SVG 1.1//EN" "http://www.w3.org/Graphics/SVG/1.1/DTD/svg11.dtd"><svg t="1617866368869" class="icon" viewBox="0 0 1024 1024" version="1.1" xmlns="http://www.w3.org/2000/svg" p-id="14983" xmlns:xlink="http://www.w3.org/1999/xlink" width="200" height="200"><defs><style type="text/css"></style></defs><path d="M716.8 228.693333c-27.306667 0-51.2 23.893333-51.2 51.2s23.893333 51.2 51.2 51.2 51.2-23.893333 51.2-51.2-23.893333-51.2-51.2-51.2zM0 515.413333l177.493333 225.28 68.266667-23.893333L68.266667 491.52l-68.266667 23.893333z m986.453333-34.133333L863.573333 92.16c-3.413333-6.826667-10.24-17.066667-17.066666-20.48-6.826667-3.413333-17.066667-3.413333-27.306667 0L51.2 351.573333c-10.24 3.413333-17.066667 13.653333-20.48 23.893334-3.413333 10.24 0 20.48 6.826667 30.72L307.2 744.106667c6.826667 6.826667 17.066667 13.653333 27.306667 13.653333 3.413333 0 6.826667 0 10.24-3.413333l624.64-228.693334c17.066667-6.826667 23.893333-27.306667 17.066666-44.373333z m-641.706666 197.973333l-225.28-283.306666 692.906666-252.586667 98.986667 327.68-566.613333 208.213333z m576.853333 10.24v102.4h-150.186667l-37.546666-71.68 194.56-71.68-23.893334-64.853333L409.6 764.586667l44.373333 58.026666 215.04-78.506666 51.2 98.986666c6.826667 10.24 17.066667 20.48 30.72 20.48h170.666667V955.733333h68.266667v-266.24h-68.266667z" p-id="14984"></path></svg>