<?xml version="1.0" encoding="utf-8"?>
<!-- Generator: Adobe Illustrator 22.0.2, SVG Export Plug-In . SVG Version: 6.00 Build 0)  -->
<svg version="1.1" id="图层_1" xmlns="http://www.w3.org/2000/svg" x="0px" y="0px"
  viewBox="0 0 200 200" style="enable-background:new 0 0 200 200;"
  xml:space="preserve">
<style type="text/css">
	.st0{fill-rule:evenodd;clip-rule:evenodd;fill:#000;}
</style>
  <g>
	<g>
		<path class="st0" d="M180,68h-56V12c0-4.4-3.6-8-8-8H84c-4.4,0-8,3.6-8,8v56H20c-4.4,0-8,3.6-8,8v112c0,4.4,3.6,8,8,8h160
			c4.4,0,8-3.6,8-8V76C188,71.6,184.4,68,180,68z M132,148c-4.4,0-8,3.6-8,8v24H76v-24c0-4.4-3.6-8-8-8c-4.4,0-8,3.6-8,8v24H28v-48
			h144v48h-32v-24C140,151.6,136.4,148,132,148z M84,84c4.4,0,8-3.6,8-8V20h16v56c0,4.4,3.6,8,8,8h56v32H28V84H84z"/>
	</g>
</g>
</svg>
