<?xml version="1.0" encoding="utf-8"?>
<!-- Generator: Adobe Illustrator 22.0.2, SVG Export Plug-In . SVG Version: 6.00 Build 0)  -->
<svg version="1.1" id="图层_1" xmlns="http://www.w3.org/2000/svg" xmlns:xlink="http://www.w3.org/1999/xlink" x="0px" y="0px"
	 viewBox="0 0 200 200" style="enable-background:new 0 0 200 200;" xml:space="preserve">
<style type="text/css">
	.st0{fill:#FF4D78;}
	.st1{fill:#1D3A7E;}
	.st2{fill:#E6A23C;}
</style>
<path class="st0" d="M56,30.1c-5.2,0-9.5-4.2-9.5-9.5V2.5h18.9v18.1C65.5,25.9,61.2,30.1,56,30.1z M78,30.1c-5.2,0-9.5-4.2-9.5-9.5
	V2.5h18.9v18.1C87.5,25.9,83.3,30.1,78,30.1z M100.1,30.1c-5.2,0-9.5-4.2-9.5-9.5V2.5h18.9v18.1C109.5,25.9,105.3,30.1,100.1,30.1z
	 M122.1,30.1c-5.2,0-9.5-4.2-9.5-9.5V2.5h18.9v18.1C131.6,25.9,127.3,30.1,122.1,30.1z M144.2,30.1c-5.2,0-9.5-4.2-9.5-9.5V2.5h18.9
	v18.1C153.6,25.9,149.4,30.1,144.2,30.1z M166.2,30.1c-5.2,0-9.5-4.2-9.5-9.5V2.5h18.9v18.1C175.7,25.9,171.4,30.1,166.2,30.1z
	 M188.2,30.1c-5.2,0-9.5-4.2-9.5-9.5V2.5h18.9v18.1C197.7,25.9,193.5,30.1,188.2,30.1z"/>
<path class="st1" d="M25.7,91.6c2.6-6,9.2-10.3,13.3-21.3c5.8-15.5,7.6-41.6,7.6-41.6h-3.7c-2.2,2.8-5.6,4.6-9.5,4.6
	c-3.9,0-7.3-1.8-9.5-4.6h-2.6c-2.2,2.8-5.6,4.6-9.5,4.6s-7.3-1.8-9.5-4.6v62.9C2.4,91.6,25.7,91.6,25.7,91.6z M43.9,140.1
	c-4.4-17.5-14.3-27.8-18-36.6H2.4V198h44.1C46.5,198,49.4,161.8,43.9,140.1z"/>
<path class="st2" d="M24.7,101.2H2.4v-7.3h22.2c2,0,3.7,1.6,3.7,3.7C28.3,99.6,26.7,101.2,24.7,101.2z"/>
<path class="st1" d="M156.6,140.1c-5.5,21.7-2.6,57.9-2.6,57.9h44.1v-94.5h-23.5C170.9,112.2,161,122.6,156.6,140.1z M198.1,28.7
	c-2.2,2.8-5.6,4.6-9.5,4.6c-3.9,0-7.3-1.8-9.5-4.6h-2.6c-2.2,2.8-5.6,4.6-9.5,4.6c-3.9,0-7.3-1.8-9.5-4.6H154c0,0,1.8,26.1,7.6,41.6
	c4.1,11,10.6,15.2,13.3,21.3h23.2C198.1,91.6,198.1,28.7,198.1,28.7z"/>
<path class="st2" d="M175.9,101.2h22.2v-7.3h-22.2c-2,0-3.7,1.6-3.7,3.7C172.2,99.6,173.8,101.2,175.9,101.2z"/>
<path class="st0" d="M11.9,30.1c-5.2,0-9.5-4.2-9.5-9.5V2.5h18.9v18.1C21.4,25.9,17.1,30.1,11.9,30.1z M34,30.1
	c-5.2,0-9.5-4.2-9.5-9.5V2.5h18.9v18.1C43.4,25.9,39.2,30.1,34,30.1z"/>
</svg>
