<?xml version="1.0" encoding="utf-8"?>
<!-- Generator: Adobe Illustrator 22.0.2, SVG Export Plug-In . SVG Version: 6.00 Build 0)  -->
<svg version="1.1" id="图层_1" xmlns="http://www.w3.org/2000/svg" x="0px" y="0px"
  viewBox="0 0 200 200" style="enable-background:new 0 0 200 200;"
  xml:space="preserve">
<style type="text/css">
	.st0{fill-rule:evenodd;clip-rule:evenodd;fill:#000;}
</style>
  <g>
	<g>
		<path class="st0" d="M188,20h-56c0-8.8-7.2-16-16-16H84c-8.8,0-16,7.2-16,16H12c-4.4,0-8,3.6-8,8c0,4.4,3.6,8,8,8h8v152
			c0,4.4,3.6,8,8,8h144c4.4,0,8-3.6,8-8V36h8c4.4,0,8-3.6,8-8C196,23.6,192.4,20,188,20z M164,180H36V36h128V180z M76,164
			c4.4,0,8-3.6,8-8V60c0-4.4-3.6-8-8-8c-4.4,0-8,3.6-8,8v96C68,160.4,71.6,164,76,164z M124,164c4.4,0,8-3.6,8-8V60c0-4.4-3.6-8-8-8
			c-4.4,0-8,3.6-8,8v96C116,160.4,119.6,164,124,164z"/>
	</g>
</g>
</svg>
