<?xml version="1.0" encoding="utf-8"?>
<!-- Generator: Adobe Illustrator 22.0.2, SVG Export Plug-In . SVG Version: 6.00 Build 0)  -->
<svg version="1.1" id="图层_1" xmlns="http://www.w3.org/2000/svg" xmlns:xlink="http://www.w3.org/1999/xlink" x="0px" y="0px"
	 viewBox="0 0 200 200" style="enable-background:new 0 0 200 200;" xml:space="preserve">
<path d="M25,172.9h150c3.3,0,6.3-2.9,6.3-6.3c0-3.3-2.9-6.3-6.3-6.3H25c-3.3,0-6.3,2.9-6.3,6.3C18.8,170,21.7,172.9,25,172.9z
	 M95.4,133.7c2.5,2.5,6.3,2.5,8.8,0l41.7-41.7c2.5-2.5,2.5-6.3,0-8.8c-2.5-2.5-6.3-2.5-8.8,0l-30.8,30.8V25c0-3.3-2.9-6.3-6.2-6.3
	s-6.3,2.9-6.3,6.3v89.2L62.9,83.3c-1.3-1.3-2.9-1.7-4.6-1.7c-1.7,0-3.3,0.4-4.6,1.7c-2.5,2.5-2.5,6.3,0,8.8L95.4,133.7L95.4,133.7z"
	/>
</svg>
