<?xml version="1.0" encoding="utf-8"?>
<!-- Generator: Adobe Illustrator 22.0.2, SVG Export Plug-In . SVG Version: 6.00 Build 0)  -->
<svg version="1.1" id="图层_1" xmlns="http://www.w3.org/2000/svg" xmlns:xlink="http://www.w3.org/1999/xlink" x="0px" y="0px"
	 viewBox="0 0 200 200" style="enable-background:new 0 0 200 200;" xml:space="preserve">
<style type="text/css">
	.st0{fill:#1D3A7E;}
	.st1{fill:#FF4D78;}
	.st2{fill:#E6A23C;}
</style>
<path class="st0" d="M18.9,142.6h113.5V175H18.9V142.6z"/>
<path class="st1" d="M116.3,73.7l16.1,68.9H18.9L35,73.7H116.3z"/>
<path class="st2" d="M108.1,158.8c0,4.5,3.6,8.1,8.1,8.1s8.1-3.6,8.1-8.1l0,0c0-4.5-3.6-8.1-8.1-8.1S108.1,154.3,108.1,158.8
	L108.1,158.8z"/>
<path class="st2" d="M83.8,158.8c0,4.5,3.6,8.1,8.1,8.1c4.5,0,8.1-3.6,8.1-8.1l0,0c0-4.5-3.6-8.1-8.1-8.1
	C87.4,150.7,83.8,154.3,83.8,158.8L83.8,158.8z"/>
<path class="st0" d="M67.6,93.9h113.5v32.4H67.6V93.9z"/>
<path class="st1" d="M165,25l16.1,68.9H67.6L83.7,25H165z"/>
<path class="st2" d="M156.7,110.1c0,4.5,3.6,8.1,8.1,8.1s8.1-3.6,8.1-8.1l0,0c0-4.5-3.6-8.1-8.1-8.1S156.7,105.7,156.7,110.1
	L156.7,110.1z"/>
<path class="st2" d="M132.4,110.1c0,4.5,3.6,8.1,8.1,8.1s8.1-3.6,8.1-8.1l0,0c0-4.5-3.6-8.1-8.1-8.1S132.4,105.7,132.4,110.1
	L132.4,110.1z"/>
</svg>
