<?xml version="1.0" standalone="no"?><!DOCTYPE svg PUBLIC "-//W3C//DTD SVG 1.1//EN" "http://www.w3.org/Graphics/SVG/1.1/DTD/svg11.dtd"><svg t="1617861088480" class="icon" viewBox="0 0 1024 1024" version="1.1" xmlns="http://www.w3.org/2000/svg" p-id="7681" xmlns:xlink="http://www.w3.org/1999/xlink" width="200" height="200"><defs><style type="text/css"></style></defs><path d="M361.97376 382.45376a30.72 30.72 0 0 1 42.51136-0.896l0.93696 0.896 260.66432 260.66944a30.72 30.72 0 0 1-42.50624 44.34432l-0.93696-0.90112-260.66944-260.66432a30.72 30.72 0 0 1 0-43.44832z" fill="#000000" p-id="7682"></path><path d="M579.2 165.23264c35.53792-35.53792 92.88704-35.98336 128.9728-1.3312l1.36192 1.3312 173.7728 173.77792a92.16 92.16 0 0 1 1.55648 128.74752l-1.55136 1.5872-350.65344 350.6432h328.92928a30.72 30.72 0 0 1 30.69952 29.568l0.02048 1.152a30.72 30.72 0 0 1-29.568 30.69952l-1.152 0.02048H308.8896a30.72 30.72 0 0 1-20.6848-8.00768l-1.03936-0.98816-142.41792-142.41792a92.16 92.16 0 0 1-1.55136-128.74752l1.55136-1.5872 434.44736-434.44736z m86.8864 43.4432a30.72 30.72 0 0 0-42.50624-0.896l-0.93696 0.896-434.44736 434.44736a30.72 30.72 0 0 0-0.98816 42.40896l0.98816 1.03424 133.4272 133.4272h124.14976l394.09664-394.09152a30.72 30.72 0 0 0 8.96-20.29056l0.03584-1.4336a30.72 30.72 0 0 0-8.00768-20.6848l-0.98816-1.03936-173.78304-173.7728z" fill="#000000" p-id="7683"></path></svg>