<?xml version="1.0" encoding="utf-8"?>
<!-- Generator: Adobe Illustrator 22.0.2, SVG Export Plug-In . SVG Version: 6.00 Build 0)  -->
<svg version="1.1" id="图层_1" xmlns="http://www.w3.org/2000/svg" xmlns:xlink="http://www.w3.org/1999/xlink" x="0px" y="0px"
	 viewBox="0 0 200 200" style="enable-background:new 0 0 200 200;" xml:space="preserve">
<path d="M100,18.7c44.9,0,81.3,36.4,81.3,81.3s-36.4,81.3-81.3,81.3S18.8,144.9,18.8,100S55.1,18.7,100,18.7z M93.8,106.2l-24.9,0
	c0.2,4,0.5,7.9,1,11.7l0.4,2.8l0.5,3c3.9,22,12.8,38.6,23,43.6L93.8,106.2z M131.1,106.3l-24.9,0v61c9.9-4.8,18.7-20.8,22.7-42.1
	l0.3-1.5l0.5-3C130.4,115.9,130.9,111.1,131.1,106.3L131.1,106.3z M56.4,106.3H31.5c2.3,25.2,18.2,46.5,40.3,56.5
	c-4.3-6.7-7.9-14.9-10.5-24.2l-0.6-2.2l-0.7-2.8l-0.6-2.8C57.7,122.7,56.7,114.5,56.4,106.3z M168.5,106.3h-24.8
	c-0.3,7.4-1.1,14.7-2.5,21.9l-0.5,2.6l-0.6,2.8l-0.7,2.8c-2.7,10.2-6.4,19.2-11.1,26.4C150.3,152.8,166.2,131.5,168.5,106.3
	L168.5,106.3z M71.8,37.3l-0.6,0.3C49.4,47.6,33.8,68.7,31.5,93.7h24.8c0.3-7.6,1.1-15,2.5-21.9l0.5-2.6l0.6-2.8l0.7-2.8
	C63.4,53.5,67.1,44.5,71.8,37.3L71.8,37.3z M93.8,32.8c-9.9,4.8-18.7,20.7-22.7,41.9l-0.3,1.6l-0.5,3c-0.7,4.8-1.2,9.6-1.4,14.5
	h24.9V32.8z M128.2,37.3l0.5,0.8c4.1,6.5,7.5,14.5,10,23.4l0.6,2.2l0.7,2.8l0.6,2.8c1.6,7.7,2.7,15.9,3,24.5h24.8
	C166.2,68.5,150.3,47.2,128.2,37.3L128.2,37.3z M106.3,32.8v61h24.9c-0.2-4-0.5-8-1-12l-0.3-2.5l-0.5-3
	C125.4,54.3,116.4,37.7,106.3,32.8L106.3,32.8z"/>
</svg>
