<?xml version="1.0" encoding="utf-8"?>
<!-- Generator: Adobe Illustrator 22.0.2, SVG Export Plug-In . SVG Version: 6.00 Build 0)  -->
<svg version="1.1" id="图层_1" xmlns="http://www.w3.org/2000/svg" xmlns:xlink="http://www.w3.org/1999/xlink" x="0px" y="0px"
	 viewBox="0 0 200 200" style="enable-background:new 0 0 200 200;" xml:space="preserve">
<style type="text/css">
	.st0{fill:#1D3A7E;}
	.st1{fill:#E6A23C;}
	.st2{fill:#FF4D78;}
</style>
<path class="st0" d="M162.3,56.7c21.8,6.8,37.5,23.5,37.5,42.9c0,19.5-15.6,36.2-37.5,43"/>
<path class="st1" d="M133.4,2.1l-70,50.9H21.5c-11.7,0-21.3,9.5-21.3,21.3v49.4c0,11.7,9.5,21.2,21.3,21.2h41.9l70,50.9V2.1z"/>
<path class="st1" d="M0.3,98.8v25c0,11.7,9.5,21.2,21.3,21.2h41.9l70,50.9V98.8H0.3z"/>
<path class="st2" d="M63.4,144.9H21.5c-11.7,0-21.3-9.5-21.3-21.2V74.3c0-11.7,9.5-21.3,21.3-21.3h41.9L63.4,144.9z"/>
<path class="st2" d="M0.3,123.7c0,11.7,9.5,21.2,21.3,21.2h41.9l0-46.2H0.3V123.7z"/>
<path class="st0" d="M162.3,142.6c22-6.8,37.5-23.5,37.5-43c0-0.3-0.1-0.6-0.1-0.9h-37.4V142.6z"/>
</svg>
