<?xml version="1.0" encoding="utf-8"?>
<!-- Generator: Adobe Illustrator 22.0.2, SVG Export Plug-In . SVG Version: 6.00 Build 0)  -->
<svg version="1.1" id="图层_1" xmlns="http://www.w3.org/2000/svg" xmlns:xlink="http://www.w3.org/1999/xlink" x="0px" y="0px"
	 viewBox="0 0 200 200" style="enable-background:new 0 0 200 200;" xml:space="preserve">
<style type="text/css">
	.st0{fill:#353334;}
	.st1{fill:#E6A23C;}
	.st2{fill:#1D3A7E;}
	.st3{fill:#FF4D78;}
</style>
<path class="st0" d="M176.2,18.7v24.1c0,3.3-2.6,5.8-5.8,5.8s-5.8-2.6-5.8-5.8V18.7c0-3.3,2.6-5.8,5.8-5.8S176.2,15.5,176.2,18.7z
	 M35.7,18.7v24.1c0,3.3-2.6,5.8-5.8,5.8S24,46.1,24,42.8V18.7c0-3.3,2.6-5.8,5.8-5.8S35.7,15.5,35.7,18.7z"/>
<path class="st0" d="M199.5,18.7c0,3.3-2.6,5.8-5.8,5.8H6.6c-3.3,0-5.8-2.6-5.8-5.8c0-3.3,2.6-5.8,5.8-5.8h187.1
	C196.9,12.9,199.5,15.5,199.5,18.7L199.5,18.7z"/>
<path class="st1" d="M74.9,83.2l119.8,102.5l-60.5,1.1L62.1,97.9L74.9,83.2z"/>
<path class="st1" d="M127.8,83.2L7.9,185.7l60.5,1.1l72.1-88.8L127.8,83.2z"/>
<path class="st2" d="M89.2,69.2L64.5,44.5c-11.1-11.1-30.2-11.1-41.2,0C12,55.9,12,74.3,23.3,85.6c9,9,15.8,15.8,24.7,24.8
	c1.2,1,2.6,1.6,4.2,1.6c1.5,0,3-0.6,4.1-1.6l16.4-16.5l16.5-16.4C91.4,75.2,91.4,71.5,89.2,69.2z"/>
<path class="st3" d="M179,44.5c-11.1-11.1-30.2-11.1-41.2,0l-24.7,24.7c-2.2,2.3-2.2,6,0,8.3l16.5,16.4l16.4,16.5
	c2.2,2.2,5.9,2.2,8.3,0c8.8-9,15.7-15.8,24.7-24.8C190.3,74.3,190.3,55.9,179,44.5L179,44.5z"/>
</svg>
