<?xml version="1.0" encoding="utf-8"?>
<!-- Generator: Adobe Illustrator 22.0.2, SVG Export Plug-In . SVG Version: 6.00 Build 0)  -->
<svg version="1.1" id="图层_1" xmlns="http://www.w3.org/2000/svg" xmlns:xlink="http://www.w3.org/1999/xlink" x="0px" y="0px"
	 viewBox="0 0 200 200" style="enable-background:new 0 0 200 200;" xml:space="preserve">
<style type="text/css">
	.st0{fill:#FFFFFF;}
	.st1{fill:#FF4D78;}
	.st2{fill:#1D3A7E;}
	.st3{fill:#E6A23C;}
</style>
<path class="st0" d="M82.2,70.3c-4.3,0-8.2,2.3-10.4,6l-1.6,2.8c-3.5,6.1-1.4,13.8,4.6,17.3L107,115c6,3.5,13.7,1.5,17.2-4.6
	c0,0,0-0.1,0-0.1l1.6-2.8c0.4-0.7,0.7-1.4,0.9-2.1c2.2-6.3-1.2-13.1-7.5-15.3c-5.4-1.8-10.6-4.2-15.5-7c-5-2.8-9.6-6.2-13.9-9.9
	c-0.6-0.5-1.2-1-1.9-1.3c-1.8-1.1-3.9-1.6-6-1.6L82.2,70.3z"/>
<path class="st0" d="M79.1,87.8L29.3,181c-1.5,3-0.5,6.6,2.4,8.4l16.3,9.7c3,1.7,6.7,0.8,8.5-2.1l55.7-89.9v-0.2
	c1.7-3,0.7-6.9-2.3-8.7l-22.5-13h-0.2c-3.1-1.7-6.9-0.5-8.6,2.6c0,0,0,0,0,0L79.1,87.8z M75,31.4l-0.8,1.3c-0.9,1.5-0.3,3.4,1.2,4.3
	l82.4,47.7c1.5,0.9,3.4,0.3,4.3-1.2c0,0,0,0,0-0.1l0.8-1.3c0.8-1.5,0.3-3.4-1.1-4.2L79.3,30.3C77.8,29.4,75.8,29.9,75,31.4
	C75,31.5,75,31.5,75,31.4L75,31.4z"/>
<path class="st0" d="M83.8,23.8c-13,22.4-5.3,51.1,17.1,64.1s51.1,5.3,64.1-17.1c13-22.5,5.4-51.4-17-64.5C141,2.1,133,0,124.8,0
	C107.9,0,92.3,9.1,83.8,23.8z"/>
<path class="st1" d="M83.8,23.8c-13,22.4-5.3,51.1,17.1,64.1s51.1,5.3,64.1-17.1c13-22.5,5.4-51.4-17-64.5C141,2.1,133,0,124.8,0
	C107.9,0,92.3,9.1,83.8,23.8z"/>
<path class="st1" d="M75,31.4l-0.8,1.3c-0.9,1.5-0.3,3.4,1.2,4.3l82.4,47.7c1.5,0.9,3.4,0.3,4.3-1.2c0,0,0,0,0-0.1l0.8-1.3
	c0.8-1.5,0.3-3.4-1.1-4.2L79.3,30.3C77.8,29.4,75.8,29.9,75,31.4C75,31.5,75,31.5,75,31.4L75,31.4z"/>
<path class="st2" d="M79.1,87.8L29.3,181c-1.5,3-0.5,6.6,2.4,8.4l16.3,9.7c3,1.7,6.7,0.8,8.5-2.1l55.7-89.9v-0.2
	c1.7-3,0.7-6.9-2.3-8.7l-22.5-13h-0.2c-3.1-1.7-6.9-0.5-8.6,2.6c0,0,0,0,0,0L79.1,87.8z"/>
<path class="st3" d="M82.2,70.3c-4.3,0-8.2,2.3-10.4,6l-1.6,2.8c-3.5,6.1-1.4,13.8,4.6,17.3L107,115c6,3.5,13.7,1.5,17.2-4.6
	c0,0,0-0.1,0-0.1l1.6-2.8c0.4-0.7,0.7-1.4,0.9-2.1c2.2-6.3-1.2-13.1-7.5-15.3c-5.4-1.8-10.6-4.2-15.5-7c-5-2.8-9.6-6.2-13.9-9.9
	c-0.6-0.5-1.2-1-1.9-1.3c-1.8-1.1-3.9-1.6-6-1.6L82.2,70.3z"/>
</svg>
