<?xml version="1.0" encoding="utf-8"?>
<!-- Generator: Adobe Illustrator 22.0.2, SVG Export Plug-In . SVG Version: 6.00 Build 0)  -->
<svg version="1.1" id="图层_1" xmlns="http://www.w3.org/2000/svg" xmlns:xlink="http://www.w3.org/1999/xlink" x="0px" y="0px"
	 viewBox="0 0 200 200" style="enable-background:new 0 0 200 200;" xml:space="preserve">
<path d="M151.9,117.7c14.4,0,26,11.7,26,26.1c0,14.4-11.7,26-26.1,26c-4.6,0-9.2-1.2-13.1-3.6c-12.4,8.2-27,12.1-41.8,11.3
	c-7.3-0.4-14.4-1.9-21.2-4.5l-1.8-0.7l4.8-11.5c6,2.5,12.3,3.9,18.9,4.3c11.2,0.6,22.4-2.1,32.1-7.9c-7.4-12.3-3.5-28.3,8.8-35.8
	C142.5,119,147.1,117.7,151.9,117.7L151.9,117.7z M62.7,49.7l6.8,10.5c-15.4,9.9-25.1,26.7-26.1,45c-0.2,4.3,0,8.7,0.8,12.9
	c14.1-2.6,27.7,6.7,30.4,20.8c2.6,14.1-6.7,27.7-20.8,30.4c-14.1,2.6-27.7-6.7-30.4-20.8c-1.8-9.4,1.8-19,9.1-25
	c-1.4-6.2-1.9-12.6-1.6-19c1.1-21.8,12.4-41.8,30.5-54L62.7,49.7L62.7,49.7z M151.9,130.2c-7.5,0-13.5,6.1-13.5,13.5
	c0,7.5,6.1,13.5,13.5,13.5c7.5,0,13.5-6.1,13.5-13.5C165.4,136.3,159.4,130.2,151.9,130.2z M49,130.2c-7.5,0-13.5,6.1-13.5,13.5
	c0,7.5,6.1,13.5,13.5,13.5s13.5-6.1,13.5-13.5C62.5,136.3,56.4,130.2,49,130.2L49,130.2z M100.4,18.7c13.9,0,25.3,10.9,26,24.7
	c26.5,10.7,43.7,36.6,43.5,65.2l0,1.5l-12.5-0.4c0.7-23-12.5-44.2-33.5-53.7c-6.2,13-21.7,18.5-34.7,12.3S70.7,46.6,76.9,33.6
	C81.2,24.5,90.4,18.8,100.4,18.7z M100.4,31.2c-7.5,0-13.5,6.1-13.5,13.5s6.1,13.5,13.5,13.5S114,52.3,114,44.8
	S107.9,31.2,100.4,31.2z"/>
</svg>
