<?xml version="1.0" encoding="utf-8"?>
<!-- Generator: Adobe Illustrator 22.0.2, SVG Export Plug-In . SVG Version: 6.00 Build 0)  -->
<svg version="1.1" id="图层_1" xmlns="http://www.w3.org/2000/svg" xmlns:xlink="http://www.w3.org/1999/xlink" x="0px" y="0px"
	 viewBox="0 0 200 200" style="enable-background:new 0 0 200 200;" xml:space="preserve">
<style type="text/css">
	.st0{fill:#1D3A7E;}
	.st1{fill:#E6A23C;}
	.st2{fill:#FF4D78;}
</style>
<path class="st0" d="M188.2,91.2c-0.1-0.1-0.1-0.2-0.2-0.3l-7.9-7.9l0.1-0.1l-15.7-15.7l-0.1,0.1L133,36l0.1-0.1l-15.7-15.7
	l-0.1,0.1L101.6,4.6c-2.2-2.2-5-3.3-7.8-3.3c-2.8,0-5.7,1.1-7.8,3.3c-4.3,4.3-4.3,11.3,0,15.7L48.4,57.8c-1.2,1.2-2.1,2.7-2.7,4.3
	l-21.9,65.7c-0.6,1.6-1.4,3.1-2.7,4.3l-6,6c-4.3,4.3-4.3,11.3,0,15.7l7.6,7.6c0.2,0.2,0.2,0.5,0,0.6L4.9,179.8
	c-4.3,4.3-4.3,11.4,0,15.8c2.2,2.1,5,3.2,7.9,3.2c2.8,0,5.7-1.1,7.8-3.2l17.9-17.9c0.2-0.2,0.5-0.2,0.6,0l7.6,7.6
	c2.1,2.1,5,3.2,7.8,3.2c2.9,0,5.8-1.1,7.9-3.2l6-6c1.2-1.2,2.8-2.1,4.3-2.7l65.7-21.9c1.7-0.6,3.1-1.6,4.3-2.8l37.4-37.3
	c2.2,2.2,5,3.2,7.8,3.2s5.6-1.1,7.8-3.2c4.4-4.3,4.3-11.5-0.1-15.9L188.2,91.2z M115.9,95.6h-6.2c-0.3,0-0.5,0.3-0.4,0.6l6,18.1
	c1.1,3.4,0.6,7.1-1.5,10c-2.1,2.9-5.4,4.6-9,4.6H82.6c-6.1,0-11.1-5-11.1-11.1s5-11.1,11.1-11.1h6.2c0.3,0,0.5-0.3,0.4-0.6l-6-18.1
	c-1.1-3.4-0.6-7.1,1.5-10c2.1-2.9,5.4-4.6,9-4.6h22.2c6.1,0,11.1,5,11.1,11.1S122,95.6,115.9,95.6z"/>
<path class="st1" d="M195.8,51.8c-2.1-2.2-5-3.2-7.8-3.2c-2.9,0-5.8,1-7.9,3.2l-7.4,7.4c-0.2,0.2-0.2,0.5,0,0.6l15,15
	c0.2,0.2,0.5,0.2,0.6,0l7.4-7.4C200.1,63.1,200.1,56.1,195.8,51.8z M140.8,1.3c-2.8,0-5.7,1.1-7.8,3.3l-7.5,7.4
	c-0.2,0.2-0.2,0.5,0,0.6l15,15c0.2,0.2,0.5,0.2,0.6,0l7.4-7.4C153,16,153,9,148.6,4.7C146.5,2.5,143.7,1.3,140.8,1.3z"/>
<path class="st2" d="M115.9,95.6h-6.2c-0.3,0-0.5,0.3-0.4,0.6l6,18.1c1.1,3.4,0.6,7.1-1.5,10s-5.4,4.6-9,4.6H82.6
	c-6.1,0-11.1-5-11.1-11.1s5-11.1,11.1-11.1h6.2c0.3,0,0.5-0.3,0.4-0.6l-6-18.1c-1.1-3.4-0.6-7.1,1.5-10s5.4-4.6,9-4.6h22.2
	c6.1,0,11.1,5,11.1,11.1S122,95.6,115.9,95.6z"/>
</svg>
