<?xml version="1.0" encoding="utf-8"?>
<!-- Generator: Adobe Illustrator 22.0.2, SVG Export Plug-In . SVG Version: 6.00 Build 0)  -->
<svg version="1.1" id="图层_1" xmlns="http://www.w3.org/2000/svg" xmlns:xlink="http://www.w3.org/1999/xlink" x="0px" y="0px"
	 viewBox="0 0 200 200" style="enable-background:new 0 0 200 200;" xml:space="preserve">
<style type="text/css">
	.st0{fill:#E6A23C;}
	.st1{fill:#1D3A7E;}
	.st2{fill:#FF4D78;}
	.st3{fill:#FFFFFF;}
</style>
<path class="st0" d="M94.9,194.9h10.1v-60.8H94.9V194.9z"/>
<path class="st1" d="M133.1,200H66.9c-2.7,0-4.9-2.2-4.9-4.9v-0.3c0-2.7,2.2-4.9,4.9-4.9h66.2c2.7,0,4.9,2.2,4.9,4.9v0.3
	C138,197.8,135.8,200,133.1,200"/>
<path class="st2" d="M100,167.1c-29.3-0.1-53.1-23.8-53.2-53.2V53.2C46.8,23.8,70.6,0,100,0s53.2,23.8,53.2,53.2v60.8
	C153.1,143.3,129.3,167,100,167.1"/>
<path class="st3" d="M100,86.1c-18.2,0-32.9-14.7-32.9-32.9S81.8,20.3,100,20.3c18.2,0,32.9,14.7,32.9,32.9S118.2,86.1,100,86.1
	L100,86.1"/>
<path class="st1" d="M83.7,68c8.6,8.6,22.5,8.7,31.1,0.1c7.3-7.3,8.6-18.6,3.1-27.3L99.5,52.2l11.4-18.4
	c-10.3-6.5-23.9-3.4-30.4,6.9C75.1,49.4,76.4,60.7,83.7,68"/>
</svg>
