<?xml version="1.0" encoding="utf-8"?>
<!-- Generator: Adobe Illustrator 22.0.2, SVG Export Plug-In . SVG Version: 6.00 Build 0)  -->
<svg version="1.1" id="图层_1" xmlns="http://www.w3.org/2000/svg" xmlns:xlink="http://www.w3.org/1999/xlink" x="0px" y="0px"
	 viewBox="0 0 200 200" style="enable-background:new 0 0 200 200;" xml:space="preserve">
<style type="text/css">
	.st0{fill:#1D3A7E;}
	.st1{fill:#FF4D78;}
	.st2{fill:#E6A23C;}
</style>
<path class="st0" d="M141.9,200H57.4c-2.7-0.2-4.8-2.6-4.6-5.3c0.2-2.5,2.1-4.4,4.6-4.6h84.5c2.7-0.2,5.1,1.9,5.3,4.6
	c0.2,2.7-1.9,5.1-4.6,5.3C142.4,200,142.1,200,141.9,200"/>
<path class="st1" d="M30.7,179.2V15.4C30.7,6.9,37.6,0,46.1,0h107.9c8.5,0,15.4,6.9,15.4,15.4v166.4c0,7.1-5.7,12.8-12.8,12.8h0
	H46.1C37.6,194.6,30.7,187.7,30.7,179.2"/>
<path class="st0" d="M100,77.5c-17.8,0-32.3-14.5-32.3-32.3c0-17.8,14.5-32.3,32.3-32.3s32.3,14.5,32.3,32.3S117.8,77.5,100,77.5"/>
<path class="st2" d="M100,53.4c-4.1,0-7.4-3.3-7.4-7.4s3.3-7.4,7.4-7.4c4.1,0,7.4,3.3,7.4,7.4l0,0C107.4,50.1,104.1,53.4,100,53.4
	L100,53.4"/>
<path class="st0" d="M100,176.8c-24.7,0-44.7-20-44.8-44.7c0-24.7,20-44.7,44.7-44.8s44.7,20,44.8,44.7c0,0,0,0,0,0.1
	C144.7,156.7,124.7,176.8,100,176.8"/>
<path class="st2" d="M100,140.6c-5.5,0-9.9-4.4-9.9-9.9c0-5.5,4.4-9.9,9.9-9.9s9.9,4.4,9.9,9.9C109.9,136.1,105.5,140.6,100,140.6
	L100,140.6"/>
</svg>
