<?xml version="1.0" encoding="utf-8"?>
<!-- Generator: Adobe Illustrator 22.0.2, SVG Export Plug-In . SVG Version: 6.00 Build 0)  -->
<svg version="1.1" id="图层_1" xmlns="http://www.w3.org/2000/svg" x="0px" y="0px"
  viewBox="0 0 200 200" style="enable-background:new 0 0 200 200;"
  xml:space="preserve">
<style type="text/css">
	.st0{fill-rule:evenodd;clip-rule:evenodd;fill:#000;}
</style>
  <g>
	<g>
		<path class="st0" d="M167.9,32.1c-37.5-37.5-98.3-37.5-135.8,0c-37.5,37.5-37.5,98.3,0,135.8c37.5,37.5,98.3,37.5,135.8,0
			C205.4,130.4,205.4,69.6,167.9,32.1z M43.4,43.4c27.4-27.4,69.6-30.8,100.7-10.2L33.3,144.1C12.7,113.1,16.1,70.8,43.4,43.4z
			 M156.6,156.6c-27.4,27.4-69.6,30.8-100.7,10.2L166.7,55.9C187.3,86.9,183.9,129.2,156.6,156.6z"/>
	</g>
</g>
</svg>
